# AST/ASF file generated using VICON BodyLanguage
# -----------------------------------------------
:version 1.10
:name VICON
:units
  mass 1.0
  length 0.45
  angle deg
:documentation
   .ast/.asf automatically generated from VICON data using
   VICON BodyBuilder and BodyLanguage model FoxedUp or BRILLIANT.MOD
:root
   order TX TY TZ RX RY RZ
   axis XYZ
   position 0 0 0  
   orientation 0 0 0 
:bonedata
  begin
     id 1 
     name lhipjoint
     direction 0.630305 -0.712092 0.309259 
     length 2.29033 
     axis 0 0 0  XYZ
  end
  begin
     id 2 
     name lfemur
     direction 0.34202 -0.939693 0  
     length 6.43538  
     axis 0 0 20  XYZ
    dof rx ry rz
    limits (-160.0 20.0)
           (-70.0 70.0)
           (-60.0 70.0)
  end
  begin
     id 3 
     name ltibia
     direction 0.34202 -0.939693 0   
     length 7.43097   
     axis 0 0 20   XYZ
    dof rx
    limits (-10.0 170.0)
  end
  begin
     id 4 
     name lfoot
     direction 0.0334653 -0.0919451 0.995202   
     length 1.78438   
     axis -90 7.62852e-016 20   XYZ
    dof rx rz
    limits (-45.0 90.0)
           (-70.0 20.0)
  end
  begin
     id 5 
     name ltoes
     direction 1.53535e-011 -4.21933e-011 1   
     length 0.90832   
     axis -90 7.62852e-016 20   XYZ
    dof rx
    limits (-90.0 20.0)
  end
  begin
     id 6 
     name rhipjoint
     direction -0.682059 -0.67077 0.291312   
     length 2.43143  
     axis 0 0 0  XYZ 
  end
  begin
     id 7 
     name rfemur
     direction -0.34202 -0.939693 0   
     length 6.63488   
     axis 0 0 -20   XYZ
    dof rx ry rz
    limits (-160.0 20.0)
           (-70.0 70.0)
           (-70.0 60.0)
  end
  begin
     id 8 
     name rtibia
     direction -0.34202 -0.939693 0   
     length 6.86532   
     axis 0 0 -20   XYZ
    dof rx
    limits (-10.0 170.0)
 end
 begin
     id 9 
     name rfoot
     direction -0.105199 -0.289033 0.951521   
     length 1.77126  
     axis -90 -7.62852e-016 -20   XYZ
    dof rx rz
    limits (-45.0 90.0)
           (-20.0 70.0)
  end
  begin
     id 10 
     name rtoes
     direction -1.53551e-011 -4.21978e-011 1   
     length 0.889273   
     axis -90 -7.62852e-016 -20   XYZ
    dof rx
    limits (-90.0 20.0)
  end
  begin
     id 11 
     name lowerback
     direction -0.0514305 0.998089 0.034245   
     length 2.02077   
     axis 0 0 0   XYZ
    dof rx ry rz
    limits (-20.0 45.0)
           (-30.0 30.0)
           (-30.0 30.0)
  end
  begin
     id 12 
     name upperback
     direction 0.0203189 0.999449 -0.0262315   
     length 2.01413   
     axis 0 0 0   XYZ
    dof rx ry rz
    limits (-20.0 45.0)
           (-30.0 30.0)
           (-30.0 30.0)
  end
  begin
     id 13 
     name thorax
     direction 0.0452736 0.998142 -0.0407729   
     length 2.02986   
     axis 0 0 0   XYZ
    dof rx ry rz
    limits (-20.0 45.0)
           (-30.0 30.0)
           (-30.0 30.0)
  end
  begin
     id 14 
     name lowerneck
     direction -0.0180464 0.999645 -0.0195774   
     length 1.59034   
     axis 0 0 0   XYZ
    dof rx ry rz
    limits (-20.0 45.0)
           (-30.0 30.0)
           (-30.0 30.0)
  end
  begin
     id 15 
     name upperneck
     direction 0.0732272 0.979935 -0.18538   
     length 1.57486   
     axis 0 0 0   XYZ
    dof rx ry rz
    limits (-20.0 45.0)
           (-30.0 30.0)
           (-30.0 30.0)
  end
  begin
     id 16
     name head
     direction 0.0252963 0.997909 -0.059472  
     length 1.60334  
     axis 0 0 0   XYZ
    dof rx ry rz
    limits (-20.0 45.0)
           (-30.0 30.0)
           (-30.0 30.0)
  end
  begin
     id 17 
     name lclavicle
     direction 0.943819 0.330449 0.00315172  
     length 3.50322  
     axis 0 0 0   XYZ
    dof ry rz
    limits (-20.0 10.0)
           (0.0 20.0)
  end
  begin
     id 18 
     name lhumerus
     direction 1 -4.48949e-011 2.22502e-028   
     length 4.63208   
     axis 180 -30 -90   XYZ
    dof rx ry rz
    limits (-60.0 90.0)
           (-90.0 90.0)
           (-90.0 90.0)
  end
  begin
     id 19
     name lradius
     direction 1 -4.48967e-011 -4.10197e-027   
     length 3.41924   
     axis 180 -30 -90   XYZ
    dof rx
    limits (-10.0 170.0)
  end
  begin
     id 20
     name lwrist
     direction 1 -4.48987e-011 -1.24264e-027   
     length 1.70962   
     axis 2.50585e-015 90 90   XYZ
    dof ry
    limits (-180.0 0.0)
 end
  begin
     id 21 
     name lhand
     direction 1 -4.48983e-011 -2.48528e-027   
     length 0.62537   
     axis 1.58582e-015 90 90   XYZ
    dof rx rz
    limits (-90.0 90.0)
           (-45.0 45.0)
  end
  begin
     id 22 
     name lfingers
     direction 1 -4.48896e-011 -4.97056e-027   
     length 0.50419   
     axis 3.17164e-015 90 90   XYZ
    dof rx
    limits (0.0 90.0)
  end
  begin
     id 23
     name lthumb
     direction 0.707107 -6.34803e-011 0.707107   
     length 0.723919   
     axis -90 45 2.85299e-015   XYZ
    dof rx rz
    limits (-45.0 45.0)
           (-45.0 45.0)
  end
  begin
     id 24 
     name rclavicle
     direction -0.964499 0.260664 -0.0423695   
     length 3.91997  
     axis 0 0 0   XYZ 
    dof ry rz
    limits (-10.0 20.0)
           (-20.0 0.0)
  end
  begin
     id 25 
     name rhumerus
     direction -1 -4.48957e-011 -1.98656e-027  
     length 4.4064   
     axis 180 30 90   XYZ
    dof rx ry rz
    limits (-90.0 60.0)
           (-90.0 90.0)
           (-90.0 90.0)
  end
  begin
     id 26 
     name rradius
     direction -1 -4.48968e-011 1.96972e-027   
     length 3.44675   
     axis 180 30 90   XYZ
    dof rx
    limits (-10.0 170.0)
  end
  begin
     id 27 
     name rwrist
     direction -1 -4.48974e-011 -1.24264e-027   
     length 1.72338   
     axis 2.50585e-015 -90 -90   XYZ
    dof ry
    limits (-180.0 0.0)
  end
  begin
     id 28
     name rhand
     direction -1 -4.48901e-011 -2.48528e-027   
     length 0.513674   
     axis 1.58582e-015 -90 -90   XYZ
    dof rx rz
    limits (-90.0 90.0)
           (-45.0 45.0)
  end
  begin
     id 29
     name rfingers
     direction -1 -4.48946e-011 -4.97056e-027   
     length 0.414137   
     axis 3.17164e-015 -90 -90   XYZ
    dof rx
    limits (0.0 90.0)
  end
  begin
     id 30
     name rthumb
     direction -0.707107 -6.34859e-011 0.707107   
     length 0.59462   
     axis -90 -45 -2.85299e-015   XYZ
    dof rx rz
    limits (-45.0 45.0)
           (-45.0 45.0)
  end
:hierarchy
  begin
    root lhipjoint rhipjoint lowerback
    lhipjoint lfemur
    lfemur ltibia
    ltibia lfoot
    lfoot ltoes
    rhipjoint rfemur
    rfemur rtibia
    rtibia rfoot
    rfoot rtoes
    lowerback upperback
    upperback thorax
    thorax lowerneck lclavicle rclavicle
    lowerneck upperneck
    upperneck head
    lclavicle lhumerus
    lhumerus lradius
    lradius lwrist
    lwrist lhand lthumb
    lhand lfingers
    rclavicle rhumerus
    rhumerus rradius
    rradius rwrist
    rwrist rhand rthumb
    rhand rfingers
  end

#!OML:ASF E:\inclinewalkrobotboard\Project 1\Capture day 1\Session 1\subject1.ASF
:FULLY-SPECIFIED
:DEGREES
80
root 11.4487 15.7463 0.416976 -22.0995 -35.9094 1.77904
lowerback 21.338 1.67534 -1.84491
upperback 15.2474 1.33664 1.98278
thorax 4.70305 0.195183 2.93077
lowerneck -7.7409 -0.597544 -2.95309
upperneck 1.20219 -0.496391 -1.00549
head 1.69419 -0.2967 0.167247
rclavicle 8.40859e-014 -5.40694e-014
rhumerus -22.7276 -6.23803 -87.6064
rradius 35.6027
rwrist -0.582654
rhand -14.9794 -21.5863
rfingers 7.12502
rthumb 11.1846 -51.2682
lclavicle 8.40859e-014 -5.40694e-014
lhumerus -14.329 -10.2758 94.2903
lradius 27.8655
lwrist 0.887233
lhand -20.6271 -37.1701
lfingers 7.12502
lthumb 5.73437 -7.26766
rfemur -67.7885 -7.61668 21.217
rtibia 122.477
rfoot -22.39 1.49834
rtoes -23.6898
lfemur -70.8983 -0.642678 -28.1263
ltibia 126.26
lfoot -17.8736 1.78141
ltoes -63.5799
81
root 11.4515 15.7452 0.415222 -22.0352 -35.9421 1.76388
lowerback 21.355 1.55377 -1.9826
upperback 15.1347 1.15696 2.13057
thorax 4.57425 0.0882712 3.19712
lowerneck -7.32692 -0.39871 -3.51135
upperneck 1.14227 -0.202681 -0.862845
head 1.60029 -0.147635 0.317669
rclavicle -2.00773e-014 2.3059e-014
rhumerus -22.8808 -5.66266 -87.0948
rradius 36.5083
rwrist -2.65744
rhand -13.2749 -20.5635
rfingers 7.12502
rthumb 12.8282 -50.1494
lclavicle -2.00773e-014 2.3059e-014
lhumerus -14.445 -9.4598 94.2441
lradius 28.2301
lwrist 0.256941
lhand -20.9749 -37.1771
lfingers 7.12502
lthumb 5.3986 -7.2659
rfemur -67.8607 -7.58263 21.2578
rtibia 122.473
rfoot -22.4446 1.33684
rtoes -24.4529
lfemur -70.9649 -0.57063 -28.1237
ltibia 126.264
lfoot -17.8525 1.80907
ltoes -63.7662
82
root 11.4531 15.7444 0.411736 -21.9888 -35.8638 1.71943
lowerback 21.4412 1.592 -1.857
upperback 15.182 1.22363 2.15375
thorax 4.58248 0.129771 3.13952
lowerneck -7.59674 -0.366234 -3.43428
upperneck 1.32747 -0.15785 -0.646536
head 1.70867 -0.122667 0.375019
rclavicle -9.93923e-016 7.95139e-015
rhumerus -22.7476 -5.62371 -86.9243
rradius 37.3563
rwrist -3.34271
rhand -12.3836 -18.4129
rfingers 7.12502
rthumb 13.6873 -47.9428
lclavicle -9.93923e-016 7.95139e-015
lhumerus -14.1948 -9.74177 93.9883
lradius 28.7593
lwrist 0.253828
lhand -21.3565 -36.9942
lfingers 7.12502
lthumb 5.03018 -7.07387
rfemur -67.854 -7.66935 21.2721
rtibia 122.473
rfoot -22.5015 1.23202
rtoes -24.8312
lfemur -71.0069 -0.634219 -28.1123
ltibia 126.248
lfoot -17.8381 1.65857
ltoes -63.6202
83
root 11.4547 15.7415 0.407906 -21.9462 -35.7912 1.68066
lowerback 21.5043 1.62281 -1.76184
upperback 15.2504 1.27457 2.19344
thorax 4.62718 0.158601 3.12017
lowerneck -8.09824 -0.309375 -3.45824
upperneck 1.76474 -0.0609791 -0.374559
head 1.94203 -0.0741849 0.471191
rclavicle -1.03368e-014 2.14687e-014
rhumerus -22.3993 -5.70108 -86.7104
rradius 37.9128
rwrist -3.79271
rhand -12.6253 -18.5447
rfingers 7.12502
rthumb 13.4544 -48.0902
lclavicle -1.03368e-014 2.14687e-014
lhumerus -13.8872 -9.95171 93.7009
lradius 29.4296
lwrist 0.578466
lhand -21.2879 -36.5296
lfingers 7.12502
lthumb 5.0964 -6.61092
rfemur -67.9089 -7.69985 21.2701
rtibia 122.489
rfoot -22.5471 1.27592
rtoes -24.5797
lfemur -71.1162 -0.629868 -28.0924
ltibia 126.258
lfoot -17.8196 1.59734
ltoes -63.6783
84
root 11.4555 15.7393 0.406484 -21.917 -35.791 1.64854
lowerback 21.5275 1.62725 -1.69541
upperback 15.2623 1.2892 2.25117
thorax 4.62852 0.167714 3.14242
lowerneck -8.18535 -0.225913 -3.55337
upperneck 1.97827 0.0621095 -0.249048
head 2.02701 -0.0128669 0.533611
rclavicle 7.7526e-015 1.43125e-014
rhumerus -22.1591 -5.82189 -86.4116
rradius 38.3718
rwrist -3.93754
rhand -12.8478 -18.8348
rfingers 7.12502
rthumb 13.2399 -48.3944
lclavicle 7.7526e-015 1.43125e-014
lhumerus -13.676 -10.0092 93.4197
lradius 30.0172
lwrist 0.738873
lhand -21.4479 -36.4409
lfingers 7.12502
lthumb 4.94185 -6.51856
rfemur -67.9401 -7.64262 21.2893
rtibia 122.499
rfoot -22.5511 1.31472
rtoes -24.2334
lfemur -71.203 -0.517499 -28.0518
ltibia 126.275
lfoot -17.8111 1.46776
ltoes -63.5806
85
root 11.456 15.7376 0.403434 -21.9309 -35.7516 1.62079
lowerback 21.6416 1.63991 -1.62462
upperback 15.2345 1.31651 2.2993
thorax 4.53892 0.186613 3.14807
lowerneck -8.03425 -0.162087 -3.33974
upperneck 1.97555 0.128173 -0.451792
head 1.99629 0.0166806 0.434598
rclavicle 1.91231e-013 -9.38264e-014
rhumerus -22.0281 -5.98123 -86.125
rradius 39.039
rwrist -3.97904
rhand -13.5813 -19.0256
rfingers 7.12502
rthumb 12.5328 -48.6297
lclavicle 1.91231e-013 -9.38264e-014
lhumerus -13.5142 -10.136 93.1378
lradius 30.5491
lwrist 0.70719
lhand -21.7419 -36.6716
lfingers 7.12502
lthumb 4.65798 -6.7428
rfemur -67.9074 -7.66429 21.308
rtibia 122.502
rfoot -22.5138 1.27216
rtoes -24.1177
lfemur -71.215 -0.452493 -28.0277
ltibia 126.267
lfoot -17.7481 1.32363
ltoes -63.4329
86
root 11.456 15.7371 0.402078 -21.9661 -35.7244 1.58163
lowerback 21.7828 1.64586 -1.54703
upperback 15.2133 1.33513 2.34575
thorax 4.44445 0.201175 3.14927
lowerneck -7.9453 -0.141084 -3.10336
upperneck 1.98865 0.138502 -0.667344
head 1.9833 0.0179722 0.325831
rclavicle 7.25564e-014 -7.15625e-015
rhumerus -21.9433 -5.97858 -85.8737
rradius 40.0085
rwrist -4.25983
rhand -14.7326 -18.7153
rfingers 7.12502
rthumb 11.4227 -48.3841
lclavicle 7.25564e-014 -7.15625e-015
lhumerus -13.3324 -10.0245 92.8478
lradius 31.1295
lwrist 0.503154
lhand -22.0233 -36.8584
lfingers 7.12502
lthumb 4.38623 -6.92385
rfemur -67.8459 -7.70436 21.346
rtibia 122.501
rfoot -22.5366 1.07559
rtoes -25.0208
lfemur -71.1226 -0.379594 -28.0085
ltibia 126.249
lfoot -17.7525 1.27477
ltoes -63.4497
87
root 11.4554 15.7377 0.402214 -21.9087 -35.7558 1.45323
lowerback 21.8601 1.64437 -1.4053
upperback 15.2112 1.354 2.42269
thorax 4.4039 0.217818 3.14802
lowerneck -7.89647 -0.118547 -3.13268
upperneck 2.00846 0.167207 -0.595882
head 1.98077 0.0340353 0.354616
rclavicle 1.5704e-014 2.14687e-014
rhumerus -21.801 -5.8285 -85.5819
rradius 41.01
rwrist -5.04611
rhand -15.8485 -18.0356
rfingers 7.12502
rthumb 10.3463 -47.7611
lclavicle 1.5704e-014 2.14687e-014
lhumerus -13.0509 -9.73463 92.5381
lradius 31.7978
lwrist 0.20825
lhand -22.4032 -37.1071
lfingers 7.12502
lthumb 4.01945 -7.16531
rfemur -67.8068 -7.68306 21.4996
rtibia 122.477
rfoot -22.5466 0.84169
rtoes -26.0581
lfemur -71.0809 -0.220505 -27.8937
ltibia 126.26
lfoot -17.8069 1.15803
ltoes -63.4819
88
root 11.4567 15.7371 0.397221 -21.7611 -35.6794 1.31859
lowerback 21.9356 1.60898 -1.35025
upperback 15.1772 1.31692 2.54301
thorax 4.32964 0.198305 3.25231
lowerneck -8.04239 -0.0390082 -3.30895
upperneck 2.20398 0.292978 -0.433213
head 2.07068 0.0969146 0.442922
rclavicle -7.87187e-014 3.81667e-014
rhumerus -21.6524 -5.64189 -85.1689
rradius 42.1018
rwrist -5.50435
rhand -15.8544 -17.3951
rfingers 7.12502
rthumb 10.3406 -47.1209
lclavicle -7.87187e-014 3.81667e-014
lhumerus -12.7962 -9.43807 92.2626
lradius 32.6455
lwrist -0.0399067
lhand -22.7088 -37.352
lfingers 7.12502
lthumb 3.72427 -7.40484
rfemur -67.8916 -7.78604 21.6272
rtibia 122.451
rfoot -22.5322 0.793797
rtoes -26.0343
lfemur -71.2466 -0.240827 -27.7852
ltibia 126.263
lfoot -17.7248 1.04158
ltoes -63.4764
89
root 11.4588 15.7365 0.392833 -21.559 -35.6566 1.16668
lowerback 21.9939 1.59535 -1.25365
upperback 15.1203 1.31697 2.66558
thorax 4.23553 0.201947 3.32875
lowerneck -8.26369 0.026559 -3.31971
upperneck 2.42968 0.395284 -0.462535
head 2.18443 0.143372 0.441597
rclavicle -6.79844e-014 1.27222e-014
rhumerus -21.6583 -5.43538 -84.7821
rradius 43.5509
rwrist -6.03443
rhand -16.1932 -17.2936
rfingers 7.12502
rthumb 10.0138 -47.0354
lclavicle -6.79844e-014 1.27222e-014
lhumerus -12.5797 -9.31557 91.9677
lradius 33.5973
lwrist -0.209221
lhand -22.8626 -37.4633
lfingers 7.12502
lthumb 3.57581 -7.51356
rfemur -68.0651 -7.79158 21.7957
rtibia 122.418
rfoot -22.452 0.703405
rtoes -25.9459
lfemur -71.4888 -0.214068 -27.6277
ltibia 126.26
lfoot -17.6198 0.689441
ltoes -63.1083
90
root 11.4591 15.7355 0.391575 -21.3289 -35.7506 0.941007
lowerback 21.9781 1.5978 -0.997583
upperback 15.11 1.36206 2.77697
thorax 4.23075 0.239026 3.29607
lowerneck -8.30992 0.0692173 -3.26836
upperneck 2.47282 0.454622 -0.576755
head 2.20625 0.169233 0.399243
rclavicle -1.59028e-015 -1.59028e-014
rhumerus -21.5649 -5.32165 -84.4296
rradius 44.9976
rwrist -6.39023
rhand -17.0067 -17.0141
rfingers 7.12502
rthumb 9.22887 -46.7921
lclavicle -1.59028e-015 -1.59028e-014
lhumerus -12.1804 -9.34573 91.6229
lradius 34.5056
lwrist -0.248385
lhand -23.0555 -37.4991
lfingers 7.12502
lthumb 3.3895 -7.54634
rfemur -68.1928 -7.62104 22.0768
rtibia 122.363
rfoot -22.3258 0.459254
rtoes -26.0711
lfemur -71.6927 0.0169259 -27.3598
ltibia 126.285
lfoot -17.5378 0.461458
ltoes -63.1521
